# xmcd CD database file
#
# Track frame offsets:
#	150
#	13825
#	37076
#	56827
#	85497
#	106001
#	123662
#
# Disc length: 2035 seconds
#
# Revision: 0
# Processed by: cddbd v1.5.2PL0 Copyright (c) Steve Scherf et al.
# Submitted via: CDex 1.70beta2
#
DISCID=5d07f107
DTITLE=BROOZER - 12.04.12
DYEAR=2012
DGENRE=Sludge Metal
TTITLE0=FEEDER
TTITLE1=SANCTUARY
TTITLE2=BLAND 
TTITLE3=VOMISA
TTITLE4=COMA
TTITLE5=BIRD IN A CAGE
TTITLE6=BULAC
EXTD=YEAR: 2012
EXTT0=
EXTT1=
EXTT2=
EXTT3=
EXTT4=
EXTT5=
EXTT6=
PLAYORDER=
